<svg width="79" height="25" viewBox="0 0 79 25" fill="none" xmlns="http://www.w3.org/2000/svg">
<g clip-path="url(#clip0_11_60)">
<path d="M5.30038 18.255C5.24313 18.2752 5.18252 18.2819 5.11853 18.2887C5.09833 18.2887 5.0916 18.2988 5.0916 18.3257C5.0916 18.3526 5.1017 18.3627 5.12527 18.3627C5.15558 18.3627 5.41487 18.356 5.45865 18.356C5.50242 18.356 5.75498 18.3627 5.78529 18.3627C5.80886 18.3627 5.81897 18.3526 5.81897 18.3257C5.81897 18.2988 5.80886 18.292 5.79203 18.2887C5.72804 18.2819 5.6708 18.2752 5.61355 18.255C5.56977 18.2381 5.55294 18.2045 5.55294 18.1236L5.50579 16.5106C5.50579 16.4298 5.52263 16.3961 5.56641 16.3793C5.62365 16.3591 5.68764 16.3524 5.75162 16.3456C5.77182 16.3456 5.77856 16.3355 5.77856 16.3086C5.77856 16.2816 5.76845 16.2715 5.74488 16.2715C5.71794 16.2715 5.52936 16.2783 5.50916 16.2783H5.36436C5.32732 16.2783 5.31721 16.2917 5.30711 16.312L4.65383 17.9149L4.06115 16.312C4.05105 16.2917 4.04095 16.2783 4.00391 16.2783H3.849C3.82543 16.2783 3.63685 16.2715 3.61328 16.2715C3.58971 16.2715 3.57961 16.2783 3.57961 16.3086C3.57961 16.3355 3.58971 16.3423 3.60655 16.3456C3.67053 16.3524 3.73451 16.3591 3.79176 16.3793C3.83553 16.3961 3.85237 16.4298 3.85237 16.5106L3.80859 17.6724C3.79849 17.861 3.78839 18.0058 3.77155 18.1337C3.76145 18.1944 3.74798 18.228 3.7042 18.2449C3.64696 18.2651 3.59308 18.2718 3.52573 18.2785C3.50552 18.2785 3.49879 18.2887 3.49879 18.3156C3.49879 18.3425 3.50889 18.3526 3.53246 18.3526C3.56277 18.3526 3.79512 18.3459 3.83553 18.3459C3.87594 18.3459 4.1083 18.3526 4.1386 18.3526C4.16218 18.3526 4.17228 18.3459 4.17228 18.3156C4.17228 18.2887 4.16218 18.2819 4.14534 18.2785C4.08136 18.2718 4.03085 18.2651 3.9736 18.2449C3.92982 18.228 3.90962 18.2078 3.89952 18.127C3.88941 18.0024 3.88941 17.861 3.89952 17.6623L3.93992 16.5881L4.57637 18.2415C4.58648 18.2718 4.60668 18.2684 4.62015 18.2415L5.33068 16.4736L5.36773 18.1236C5.36773 18.2112 5.34752 18.2449 5.30375 18.2617L5.30038 18.255Z" fill="#2B388F"/>
<path d="M6.86288 17.5343C6.64063 17.6084 6.30051 17.7297 6.16918 17.8172C6.07489 17.8812 6.01091 17.9856 6.01091 18.1135C6.01091 18.2819 6.11193 18.3863 6.29041 18.3863C6.55644 18.3863 6.74165 18.228 6.86288 18.1405C6.87635 18.1236 6.88645 18.1338 6.88982 18.1506C6.91339 18.2887 6.98411 18.3695 7.10197 18.3695C7.22993 18.3695 7.31412 18.2718 7.34442 18.1371C7.35453 18.0933 7.31748 18.0765 7.30401 18.1102C7.29391 18.1371 7.25014 18.1876 7.19289 18.1876C7.10197 18.1876 7.07166 18.1102 7.07166 18.0058V17.238C7.07166 17.0528 6.9538 16.9551 6.74165 16.9551C6.51266 16.9551 6.25337 17.0393 6.11193 17.1808C6.05469 17.238 6.01765 17.3357 6.02101 17.4165C6.02101 17.4636 6.04795 17.4771 6.1153 17.4569C6.19612 17.43 6.24327 17.4131 6.2298 17.339C6.2298 17.2111 6.35102 17.0562 6.59011 17.0562C6.75849 17.0562 6.89655 17.1201 6.89655 17.2717V17.4704C6.89655 17.4973 6.88645 17.5209 6.85951 17.531L6.86288 17.5343ZM6.89992 17.9687C6.89992 18.0125 6.89318 18.0294 6.85951 18.0597C6.79216 18.1203 6.61032 18.2314 6.45542 18.2314C6.30051 18.2314 6.21969 18.1607 6.21969 18.0361C6.21969 17.962 6.25 17.8913 6.29714 17.8543C6.40154 17.7734 6.6844 17.669 6.85278 17.6152C6.88982 17.6051 6.90329 17.6253 6.90329 17.6589V17.9721L6.89992 17.9687Z" fill="#2B388F"/>
<path d="M8.257 18.2785C8.2368 18.2785 8.23007 18.2886 8.23007 18.3156C8.23007 18.3425 8.24017 18.3526 8.26374 18.3526C8.29405 18.3526 8.51293 18.3459 8.55671 18.3459C8.60049 18.3459 8.8059 18.3526 8.83621 18.3526C8.85978 18.3526 8.86988 18.3459 8.86988 18.3156C8.86988 18.2886 8.85978 18.2819 8.84294 18.2785C8.79243 18.2718 8.76212 18.2718 8.70488 18.2482C8.66783 18.2314 8.60049 18.1775 8.53987 18.1135L8.05832 17.595C8.04486 17.5781 8.04149 17.568 8.05832 17.5512C8.1122 17.5108 8.36476 17.302 8.44558 17.2346C8.52977 17.1673 8.59038 17.1269 8.62406 17.11C8.6813 17.0831 8.73518 17.0797 8.78906 17.073C8.80927 17.073 8.816 17.0629 8.816 17.036C8.816 17.009 8.8059 16.9989 8.78233 16.9989C8.75202 16.9989 8.58702 17.0056 8.54661 17.0056C8.5062 17.0056 8.32099 16.9989 8.29068 16.9989C8.26711 16.9989 8.257 17.009 8.257 17.036C8.257 17.0629 8.26374 17.0696 8.28394 17.073C8.33446 17.0797 8.3917 17.0797 8.42201 17.1067C8.44222 17.1269 8.43548 17.1437 8.41191 17.1707C8.24017 17.3155 8.01792 17.504 7.84281 17.6253C7.81924 17.6421 7.80577 17.632 7.80577 17.6051V16.386C7.80577 16.3254 7.80577 16.1941 7.81587 16.1032C7.81587 16.0762 7.79903 16.0661 7.77546 16.0762C7.68117 16.1301 7.55994 16.1773 7.46228 16.2008C7.43535 16.2076 7.43198 16.2109 7.43535 16.2311C7.43535 16.2581 7.44208 16.2581 7.46902 16.2614C7.5431 16.2715 7.63403 16.2749 7.63403 16.3456V18.1135C7.63403 18.1944 7.61719 18.228 7.57341 18.2449C7.51616 18.2651 7.47575 18.2684 7.42524 18.2718C7.40504 18.2718 7.3983 18.2819 7.3983 18.3089C7.3983 18.3358 7.40841 18.3459 7.43198 18.3459C7.46228 18.3459 7.68117 18.3392 7.72495 18.3392C7.76872 18.3392 7.97414 18.3459 8.00445 18.3459C8.02802 18.3459 8.03812 18.3392 8.03812 18.3089C8.03812 18.2819 8.02802 18.2752 8.01118 18.2718C7.96067 18.2651 7.93036 18.2617 7.87311 18.2449C7.82934 18.228 7.8125 18.1944 7.8125 18.1135V17.7633C7.8125 17.7465 7.8125 17.7364 7.82934 17.7229L7.87311 17.6926C7.89669 17.6758 7.91689 17.6724 7.9371 17.6926L8.34793 18.1506C8.40181 18.2045 8.39507 18.228 8.38497 18.2449C8.36476 18.2684 8.31088 18.2684 8.26037 18.2718L8.257 18.2785Z" fill="#2B388F"/>
<path d="M9.18979 17.5882L10.1428 17.5983C10.1664 17.5983 10.1866 17.5781 10.1899 17.5478C10.2169 17.2717 10.0653 16.9518 9.6545 16.9518C9.30092 16.9518 8.9507 17.201 8.9507 17.6825C8.9507 18.1203 9.2504 18.3594 9.60736 18.3594C9.87338 18.3594 10.0923 18.2112 10.163 18.0462C10.1731 18.0193 10.1697 18.0125 10.1529 18.0058C10.1394 17.9991 10.1259 18.0058 10.1125 18.0226C10.0283 18.1169 9.91379 18.191 9.72522 18.191C9.42551 18.191 9.16622 18.0529 9.14601 17.6387C9.14601 17.6017 9.14601 17.5849 9.18642 17.5849L9.18979 17.5882ZM9.6444 17.0629C9.86665 17.0629 10.0148 17.2111 10.0148 17.4064C10.0148 17.4468 10.0081 17.4737 9.9441 17.4771C9.81277 17.4838 9.38847 17.4872 9.19316 17.4872C9.16285 17.4872 9.15948 17.4872 9.15948 17.4569C9.15948 17.2852 9.34469 17.0629 9.6444 17.0629Z" fill="#2B388F"/>
<path d="M12.2474 17.3188L12.4529 16.9653C12.5438 16.8137 12.6145 16.6824 12.7223 16.5376C12.766 16.4803 12.8132 16.4096 12.8772 16.3894C12.9344 16.3692 12.9782 16.3591 13.0422 16.3524C13.0624 16.3524 13.0691 16.3423 13.0691 16.3153C13.0691 16.2884 13.059 16.2783 13.0354 16.2783C13.0051 16.2783 12.7728 16.285 12.7324 16.285C12.6919 16.285 12.4428 16.2783 12.4124 16.2783C12.3889 16.2783 12.3788 16.2884 12.3788 16.3153C12.3788 16.3423 12.3889 16.349 12.4057 16.3524C12.4663 16.3591 12.5337 16.3658 12.5707 16.3894C12.601 16.4096 12.6145 16.4265 12.5909 16.4837C12.5337 16.6117 12.4596 16.7632 12.3586 16.9215L12.1464 17.2683L11.675 16.5039C11.6413 16.45 11.6245 16.4029 11.6581 16.386C11.7019 16.3658 11.7558 16.3591 11.8164 16.3524C11.8366 16.3524 11.8433 16.3423 11.8433 16.3153C11.8433 16.2884 11.8332 16.2783 11.8097 16.2783C11.7794 16.2783 11.5201 16.285 11.4763 16.285C11.4325 16.285 11.1934 16.2783 11.1598 16.2783C11.1362 16.2783 11.1261 16.2884 11.1261 16.3153C11.1261 16.3423 11.1328 16.349 11.153 16.3524C11.217 16.3591 11.2574 16.3658 11.3147 16.386C11.3584 16.4029 11.4291 16.4702 11.4628 16.5308L11.9949 17.3592C12.0151 17.3963 12.0286 17.4333 12.0286 17.4704V18.1136C12.0286 18.1944 12.0117 18.228 11.9679 18.2449C11.9107 18.2651 11.8501 18.2718 11.7861 18.2786C11.7659 18.2786 11.7592 18.2887 11.7592 18.3156C11.7592 18.3425 11.7693 18.3526 11.7928 18.3526C11.8231 18.3526 12.0858 18.3459 12.1262 18.3459C12.1666 18.3459 12.4259 18.3526 12.4562 18.3526C12.4798 18.3526 12.4899 18.3459 12.4899 18.3156C12.4899 18.2887 12.4798 18.2819 12.463 18.2786C12.399 18.2718 12.3417 18.2651 12.2845 18.2449C12.2407 18.228 12.2239 18.1944 12.2239 18.1136V17.4064C12.2239 17.3862 12.234 17.3458 12.2474 17.3188Z" fill="#2B388F"/>
<path d="M13.7258 18.3594C14.0928 18.3594 14.4026 18.1371 14.4026 17.6488C14.4026 17.1942 14.1096 16.9518 13.7258 16.9518C13.3419 16.9518 13.0489 17.1942 13.0489 17.6488C13.0489 18.1371 13.3587 18.3594 13.7258 18.3594ZM13.7258 17.0562C14.0221 17.0562 14.1972 17.2616 14.1972 17.6488C14.1972 17.9957 14.012 18.2584 13.7258 18.2584C13.4395 18.2584 13.2543 17.9923 13.2543 17.6488C13.2543 17.2616 13.4294 17.0562 13.7258 17.0562Z" fill="#2B388F"/>
<path d="M15.8001 18.3729C15.9247 18.3291 16.0291 18.3021 16.1537 18.2718C16.1739 18.2651 16.184 18.2483 16.1806 18.2281C16.1806 18.2146 16.1705 18.2011 16.1537 18.2045C16.0931 18.2146 16.0257 18.2146 15.9887 18.1944C15.9516 18.1708 15.9449 18.1405 15.9449 18.0833V17.2751C15.9449 17.2145 15.9449 17.0798 15.955 16.9888C15.955 16.9619 15.9382 16.9518 15.9146 16.9619C15.8068 16.9989 15.6822 17.0191 15.5779 17.0259C15.5509 17.0259 15.5475 17.0393 15.5509 17.0595C15.5509 17.0865 15.5577 17.0865 15.5846 17.0899C15.6587 17.1 15.7765 17.1168 15.7765 17.1841V17.8745C15.7765 17.9115 15.7664 17.962 15.7563 17.9856C15.7058 18.0866 15.561 18.2146 15.3792 18.2146C15.1603 18.2146 15.0256 18.1371 15.0256 17.925V17.2717C15.0256 17.2111 15.0256 17.0764 15.0357 16.9855C15.0357 16.9585 15.0189 16.9484 14.9953 16.9585C14.8875 16.9956 14.7629 17.0158 14.6585 17.0225C14.6316 17.0225 14.6282 17.036 14.6316 17.0562C14.6316 17.0831 14.6383 17.0831 14.6653 17.0865C14.7394 17.0966 14.8572 17.1134 14.8572 17.1808V17.9654C14.8572 18.2483 15.0323 18.3594 15.295 18.3594C15.4937 18.3594 15.6418 18.2483 15.7496 18.1371C15.7597 18.1237 15.7765 18.1371 15.7765 18.154V18.3459C15.7765 18.3628 15.7866 18.3729 15.8035 18.3661L15.8001 18.3729Z" fill="#2B388F"/>
<path d="M16.8743 17.1808C16.945 17.1808 17.0023 17.1976 17.0461 17.2313C17.073 17.2515 17.0999 17.2649 17.137 17.2649C17.2144 17.2649 17.2818 17.201 17.2818 17.1201C17.2818 17.036 17.2111 16.9753 17.1269 16.9753C16.9821 16.9753 16.8306 17.0629 16.7194 17.1707C16.706 17.1808 16.6992 17.1808 16.6992 17.1605C16.6992 17.0999 16.6992 17.0629 16.7093 17.0023C16.7093 16.9753 16.6925 16.9652 16.6689 16.9753C16.5746 17.0292 16.4534 17.0764 16.3557 17.0999C16.3288 17.1067 16.3254 17.11 16.3288 17.1302C16.3288 17.1572 16.3355 17.1572 16.3625 17.1605C16.4366 17.1707 16.5275 17.174 16.5275 17.2447V18.1102C16.5275 18.191 16.5106 18.2247 16.4669 18.2415C16.4096 18.2617 16.3692 18.2651 16.3187 18.2684C16.2985 18.2684 16.2918 18.2819 16.2918 18.3089C16.2918 18.3358 16.3019 18.3425 16.3221 18.3425C16.3524 18.3425 16.5713 18.3358 16.615 18.3358C16.6588 18.3358 16.8642 18.3425 16.8979 18.3425C16.9215 18.3425 16.9282 18.3358 16.9282 18.3055C16.9282 18.2785 16.9215 18.2718 16.9013 18.2684C16.8508 18.2617 16.8137 18.2583 16.7565 18.2415C16.7127 18.2247 16.6959 18.191 16.6959 18.1102V17.3727C16.6959 17.2784 16.7531 17.1909 16.8743 17.174V17.1808Z" fill="#2B388F"/>
<path d="M18.7534 16.4197C18.787 16.4029 18.8342 16.3928 18.8746 16.3928H19.2248C19.3561 16.3928 19.41 16.4399 19.4504 16.5174C19.4807 16.578 19.5144 16.6622 19.538 16.7262C19.5447 16.743 19.5515 16.7464 19.5717 16.7396C19.5919 16.7329 19.5952 16.7262 19.5919 16.7026C19.5683 16.5645 19.5481 16.4534 19.5245 16.3153C19.5178 16.2951 19.511 16.2884 19.4908 16.2884C19.4572 16.2884 18.979 16.2985 18.9386 16.2985C18.8948 16.2985 18.3493 16.2884 18.2954 16.2884C18.2718 16.2884 18.2617 16.2985 18.2617 16.3254C18.2617 16.3557 18.2752 16.3625 18.2887 16.3625C18.3425 16.3625 18.3964 16.3692 18.4402 16.386C18.5008 16.4029 18.521 16.4568 18.521 16.5308V18.1136C18.521 18.1944 18.5042 18.228 18.4604 18.2449C18.4032 18.2651 18.3493 18.2718 18.2819 18.2786C18.2617 18.2786 18.255 18.2887 18.255 18.3156C18.255 18.3425 18.2651 18.3526 18.2887 18.3526C18.319 18.3526 18.5715 18.3459 18.6153 18.3459C18.6591 18.3459 18.9015 18.3526 18.9318 18.3526C18.9554 18.3526 18.9655 18.3459 18.9655 18.3156C18.9655 18.2887 18.9554 18.2819 18.9386 18.2786C18.8746 18.2718 18.8241 18.2651 18.7668 18.2449C18.7231 18.228 18.7062 18.1944 18.7062 18.1136V17.339C18.7062 17.3087 18.713 17.2986 18.7466 17.2986H19.1137C19.2686 17.2986 19.2888 17.339 19.309 17.3929C19.3326 17.4603 19.3494 17.5411 19.3629 17.6152C19.3696 17.6387 19.373 17.6421 19.3932 17.6387C19.4134 17.6387 19.4201 17.632 19.4201 17.6051C19.4134 17.4906 19.4067 17.2852 19.4067 17.2683C19.4067 17.2515 19.4168 17.0528 19.4201 16.9417C19.4201 16.9147 19.4134 16.9114 19.3932 16.908C19.373 16.908 19.3662 16.908 19.3629 16.9316C19.346 17.0057 19.3326 17.0562 19.3124 17.1134C19.2922 17.1673 19.272 17.2043 19.1171 17.2043H18.7466C18.713 17.2043 18.7062 17.1942 18.7062 17.1606V16.5477C18.7062 16.4871 18.7231 16.4399 18.7567 16.4231L18.7534 16.4197Z" fill="#2B388F"/>
<path d="M20.885 18.3729C21.0096 18.3291 21.114 18.3021 21.2386 18.2718C21.2588 18.2651 21.2689 18.2483 21.2655 18.2281C21.2655 18.2146 21.2554 18.2011 21.2386 18.2045C21.1779 18.2146 21.1106 18.2146 21.0735 18.1944C21.0365 18.1708 21.0298 18.1405 21.0298 18.0833V17.2751C21.0298 17.2145 21.0298 17.0798 21.0399 16.9888C21.0399 16.9619 21.023 16.9518 20.9995 16.9619C20.8917 16.9989 20.7671 17.0191 20.6627 17.0259C20.6358 17.0259 20.6324 17.0393 20.6358 17.0595C20.6358 17.0865 20.6425 17.0865 20.6695 17.0899C20.7435 17.1 20.8614 17.1168 20.8614 17.1841V17.8745C20.8614 17.9115 20.8513 17.962 20.8412 17.9856C20.7907 18.0866 20.6459 18.2146 20.464 18.2146C20.2452 18.2146 20.1105 18.1371 20.1105 17.925V17.2717C20.1105 17.2111 20.1105 17.0764 20.1206 16.9855C20.1206 16.9585 20.1037 16.9484 20.0801 16.9585C19.9724 16.9956 19.8478 17.0158 19.7434 17.0225C19.7165 17.0225 19.7131 17.036 19.7165 17.0562C19.7165 17.0831 19.7232 17.0831 19.7501 17.0865C19.8242 17.0966 19.9421 17.1134 19.9421 17.1808V17.9654C19.9421 18.2483 20.1172 18.3594 20.3799 18.3594C20.5785 18.3594 20.7267 18.2483 20.8345 18.1371C20.8446 18.1237 20.8614 18.1371 20.8614 18.154V18.3459C20.8614 18.3628 20.8715 18.3729 20.8883 18.3661L20.885 18.3729Z" fill="#2B388F"/>
<path d="M21.8279 18.3661C21.9828 18.3661 22.104 18.2887 22.1781 18.1944C22.1949 18.1708 22.1915 18.1506 22.1781 18.1439C22.1579 18.1338 22.1444 18.1439 22.1343 18.1506C22.0872 18.1944 22.0232 18.2247 21.9525 18.2247C21.8481 18.2247 21.7571 18.2011 21.7571 18.0563V17.174C21.7571 17.1437 21.7672 17.1336 21.7976 17.1336H22.1107C22.1377 17.1336 22.1545 17.1269 22.1545 17.0764C22.1545 17.0259 22.141 17.0191 22.1107 17.0191H21.7976C21.7639 17.0191 21.7571 17.009 21.7571 16.9754V16.7396C21.7571 16.7093 21.7437 16.6959 21.7134 16.6959C21.673 16.6959 21.6628 16.706 21.6561 16.7396C21.6292 16.9114 21.5652 17.0326 21.3867 17.0663C21.3598 17.0764 21.353 17.0798 21.353 17.1C21.353 17.1269 21.3631 17.1303 21.3834 17.1303H21.545C21.5753 17.1303 21.5854 17.1404 21.5854 17.1707V18.1001C21.5854 18.3089 21.7066 18.3661 21.8312 18.3661H21.8279Z" fill="#2B388F"/>
<path d="M23.4577 18.3729C23.5823 18.3291 23.6867 18.3021 23.8113 18.2718C23.8315 18.2651 23.8416 18.2483 23.8382 18.2281C23.8382 18.2146 23.8281 18.2011 23.8113 18.2045C23.7507 18.2146 23.6833 18.2146 23.6463 18.1944C23.6092 18.1708 23.6025 18.1405 23.6025 18.0833V17.2751C23.6025 17.2145 23.6025 17.0798 23.6126 16.9888C23.6126 16.9619 23.5958 16.9518 23.5722 16.9619C23.4644 16.9989 23.3398 17.0191 23.2355 17.0259C23.2085 17.0259 23.2051 17.0393 23.2085 17.0595C23.2085 17.0865 23.2152 17.0865 23.2422 17.0899C23.3163 17.1 23.4341 17.1168 23.4341 17.1841V17.8745C23.4341 17.9115 23.424 17.962 23.4139 17.9856C23.3634 18.0866 23.2186 18.2146 23.0368 18.2146C22.8179 18.2146 22.6832 18.1371 22.6832 17.925V17.2717C22.6832 17.2111 22.6832 17.0764 22.6933 16.9855C22.6933 16.9585 22.6765 16.9484 22.6529 16.9585C22.5451 16.9956 22.4205 17.0158 22.3161 17.0225C22.2892 17.0225 22.2858 17.036 22.2892 17.0562C22.2892 17.0831 22.2959 17.0831 22.3229 17.0865C22.397 17.0966 22.5148 17.1134 22.5148 17.1808V17.9654C22.5148 18.2483 22.6899 18.3594 22.9526 18.3594C23.1513 18.3594 23.2994 18.2483 23.4072 18.1371C23.4173 18.1237 23.4341 18.1371 23.4341 18.154V18.3459C23.4341 18.3628 23.4442 18.3729 23.4611 18.3661L23.4577 18.3729Z" fill="#2B388F"/>
<path d="M24.5353 17.1808C24.606 17.1808 24.6633 17.1976 24.707 17.2313C24.734 17.2515 24.7609 17.2649 24.798 17.2649C24.8754 17.2649 24.9428 17.201 24.9428 17.1201C24.9428 17.036 24.872 16.9753 24.7879 16.9753C24.6431 16.9753 24.4915 17.0629 24.3804 17.1707C24.3669 17.1808 24.3602 17.1808 24.3602 17.1605C24.3602 17.0999 24.3602 17.0629 24.3703 17.0023C24.3703 16.9753 24.3534 16.9652 24.3299 16.9753C24.2356 17.0292 24.1144 17.0764 24.0167 17.0999C23.9898 17.1067 23.9864 17.11 23.9898 17.1302C23.9898 17.1572 23.9965 17.1572 24.0234 17.1605C24.0975 17.1707 24.1884 17.174 24.1884 17.2447V18.1102C24.1884 18.191 24.1716 18.2247 24.1278 18.2415C24.0706 18.2617 24.0302 18.2651 23.9797 18.2684C23.9595 18.2684 23.9527 18.2819 23.9527 18.3089C23.9527 18.3358 23.9628 18.3425 23.983 18.3425C24.0133 18.3425 24.2322 18.3358 24.276 18.3358C24.3198 18.3358 24.5252 18.3425 24.5589 18.3425C24.5824 18.3425 24.5892 18.3358 24.5892 18.3055C24.5892 18.2785 24.5824 18.2718 24.5622 18.2684C24.5117 18.2617 24.4747 18.2583 24.4174 18.2415C24.3737 18.2247 24.3568 18.191 24.3568 18.1102V17.3727C24.3568 17.2784 24.4141 17.1909 24.5353 17.174V17.1808Z" fill="#2B388F"/>
<path d="M25.2593 17.5882L26.2123 17.5983C26.2359 17.5983 26.2561 17.5781 26.2594 17.5478C26.2864 17.2717 26.1348 16.9518 25.724 16.9518C25.3704 16.9518 25.0202 17.201 25.0202 17.6825C25.0202 18.1203 25.3199 18.3594 25.6769 18.3594C25.9429 18.3594 26.1618 18.2112 26.2359 18.0462C26.246 18.0193 26.2426 18.0125 26.2258 18.0058C26.2123 17.9991 26.1988 18.0058 26.1853 18.0226C26.1012 18.1169 25.9867 18.191 25.7981 18.191C25.4984 18.191 25.2391 18.0529 25.2189 17.6387C25.2189 17.6017 25.2189 17.5849 25.2593 17.5849V17.5882ZM25.7139 17.0629C25.9362 17.0629 26.0843 17.2111 26.0843 17.4064C26.0843 17.4468 26.0776 17.4737 26.0136 17.4771C25.8823 17.4838 25.458 17.4872 25.2627 17.4872C25.2324 17.4872 25.229 17.4872 25.229 17.4569C25.229 17.2852 25.4142 17.0629 25.7139 17.0629Z" fill="#2B388F"/>
<path d="M7.57004 11.7087C7.5431 11.3214 7.5229 10.6277 7.5229 10.5637C7.5229 10.5065 7.55321 9.82961 7.57004 9.46256C7.59362 9.23357 7.42524 9.21 7.37136 9.20326H7.31748C7.16258 9.1999 7.12891 9.33459 7.1188 9.38174C7.06156 9.62756 7.01441 9.79593 6.95043 9.98115C6.89992 10.1192 6.86961 10.2034 6.41164 10.2034H5.15221V8.09537C5.15221 7.92026 5.20272 7.81587 5.24987 7.7923C5.33742 7.74852 5.47885 7.71821 5.60345 7.71821H6.79553C7.18952 7.71821 7.33095 7.84618 7.44545 8.06843C7.5431 8.26711 7.6576 8.53987 7.73842 8.76213C7.78219 8.89009 7.87648 8.91029 7.92699 8.91029C7.95393 8.91029 7.98087 8.90693 8.01455 8.89682C8.20313 8.84294 8.18292 8.68131 8.17619 8.64427L8.16945 7.28045C8.13578 7.15585 8.05496 7.0986 7.92699 7.0986C7.86975 7.0986 5.88295 7.12891 5.8156 7.12891C5.74825 7.12891 3.71767 7.0986 3.61665 7.0986C3.45838 7.0986 3.36746 7.19289 3.36746 7.35453C3.36746 7.54311 3.48532 7.61046 3.58971 7.61046C3.72441 7.61719 3.91972 7.63403 4.07799 7.68117C4.16218 7.70474 4.25983 7.76873 4.25983 8.05496V13.4564C4.25983 13.7359 4.19585 13.7594 4.1386 13.783C3.98033 13.8369 3.81533 13.8706 3.5594 13.8908C3.46175 13.9042 3.35062 13.9615 3.35062 14.1467C3.35062 14.3117 3.44154 14.4026 3.59981 14.4026C3.65032 14.4026 4.63699 14.3824 4.71444 14.3824C4.79189 14.3824 5.75162 14.4026 5.79876 14.4026C5.95703 14.4026 6.04795 14.3083 6.04795 14.1467C6.04795 13.9581 5.93346 13.9042 5.82907 13.8908C5.63376 13.8739 5.46538 13.8504 5.27681 13.783C5.21619 13.7594 5.15221 13.7359 5.15221 13.4564V10.8129H6.4049C6.85951 10.8129 6.89318 10.9038 6.9437 11.0385C7.01778 11.2608 7.07503 11.5403 7.12217 11.7861C7.13227 11.8299 7.16595 11.9679 7.32085 11.9679H7.37473C7.42861 11.9545 7.59698 11.9309 7.57341 11.7087H7.57004Z" fill="#2B388F"/>
<path d="M12.234 13.783V14.2713C12.234 14.3252 12.2474 14.3689 12.2744 14.406C12.3081 14.4531 12.3619 14.4767 12.4259 14.4767L12.4865 14.47L12.5067 14.4632C12.931 14.3184 13.2813 14.2241 13.7123 14.1197C13.8504 14.0793 13.9278 13.948 13.8941 13.8133C13.8638 13.655 13.7527 13.6315 13.6651 13.6315H13.6517C13.5742 13.6416 13.4934 13.6483 13.4193 13.6483C13.2779 13.6483 13.2004 13.6247 13.1701 13.6113C13.1095 13.5742 13.0792 13.5338 13.0792 13.3486V10.4863C13.0792 10.264 13.0758 9.89022 13.1061 9.62419C13.1129 9.55348 13.096 9.48949 13.0523 9.44235C13.0119 9.39857 12.958 9.375 12.8974 9.375C12.857 9.375 12.8199 9.3851 12.7963 9.39857C12.4023 9.53327 11.9679 9.59052 11.6716 9.61409C11.5942 9.62419 11.5369 9.65113 11.4965 9.69828C11.4426 9.76899 11.4527 9.84981 11.4561 9.87338C11.4729 10.0216 11.5335 10.0822 11.6884 10.0956C12.1296 10.1461 12.2239 10.2303 12.2239 10.2909V12.6448C12.2239 12.7526 12.1969 12.9075 12.17 12.9714C12.0353 13.2442 11.5975 13.6752 11.0015 13.6752C10.264 13.6752 9.934 13.4126 9.934 12.8199V10.4863C9.934 10.264 9.93063 9.89022 9.96094 9.62419C9.96767 9.55348 9.95084 9.48949 9.90706 9.44235C9.86665 9.39857 9.81277 9.375 9.75216 9.375C9.71175 9.375 9.6747 9.3851 9.65113 9.39857C9.34469 9.50296 8.94397 9.58041 8.5264 9.61409C8.44895 9.62419 8.3917 9.65113 8.35129 9.69828C8.29741 9.76899 8.30752 9.84981 8.31088 9.87338C8.32772 10.0216 8.38834 10.0822 8.54324 10.0956C8.98438 10.1461 9.07866 10.2303 9.07866 10.2909V12.9714C9.07866 13.9379 9.6444 14.4498 10.7119 14.4498C11.3921 14.4498 11.8871 14.1029 12.2306 13.7796L12.234 13.783Z" fill="#2B388F"/>
<path d="M16.9787 13.8133C17.0326 13.7426 17.0562 13.6618 17.0393 13.5877C17.0259 13.5271 16.9922 13.4766 16.9383 13.4429C16.8979 13.4193 16.8541 13.4058 16.8103 13.4058C16.7093 13.4058 16.6453 13.4698 16.6285 13.4867C16.4702 13.6281 16.2783 13.7022 16.0931 13.7022C15.7429 13.7022 15.561 13.6348 15.561 13.2577V10.2371H16.6285C16.7363 10.2371 16.9147 10.1967 16.9147 9.91379C16.9147 9.77573 16.8844 9.59052 16.6285 9.59052H15.561V8.77223C15.561 8.65436 15.5139 8.5062 15.2411 8.48599C14.9953 8.48599 14.9616 8.68467 14.9481 8.75539C14.8572 9.37837 14.6215 9.66797 14.1164 9.76226C14.0457 9.78583 13.911 9.82961 13.911 10.0047C13.911 10.1125 13.9514 10.2438 14.1501 10.2438H14.7091V13.4159C14.7091 14.3184 15.3152 14.4531 15.6789 14.4531C16.1907 14.4531 16.6655 14.2208 16.9754 13.8133H16.9787Z" fill="#2B388F"/>
<path d="M23.0065 13.8133C22.9762 13.655 22.865 13.6315 22.7775 13.6315H22.764C22.6866 13.6416 22.6057 13.6483 22.5317 13.6483C22.3902 13.6483 22.3128 13.6247 22.2825 13.6113C22.2218 13.5742 22.1915 13.5338 22.1915 13.3486V10.4863C22.1915 10.264 22.1882 9.89022 22.2185 9.62419C22.2252 9.55348 22.2084 9.48949 22.1646 9.44235C22.1242 9.39857 22.0703 9.375 22.0097 9.375C21.9693 9.375 21.9322 9.3851 21.9087 9.39857C21.5989 9.50296 21.2015 9.58041 20.7839 9.61409C20.7065 9.62419 20.6492 9.65113 20.6088 9.69828C20.555 9.76899 20.5651 9.84981 20.5684 9.87338C20.5853 10.0216 20.6459 10.0822 20.8008 10.0956C21.2419 10.1461 21.3362 10.2303 21.3362 10.2909V12.6448C21.3362 12.7526 21.3093 12.9075 21.2823 12.9714C21.1476 13.2442 20.7099 13.6752 20.1138 13.6752C19.3763 13.6752 19.0463 13.4126 19.0463 12.8199V10.4863C19.0463 10.264 19.043 9.89022 19.0733 9.62419C19.08 9.55348 19.0632 9.48949 19.0194 9.44235C18.979 9.39857 18.9251 9.375 18.8645 9.375C18.8241 9.375 18.787 9.3851 18.7635 9.39857C18.3695 9.53327 17.9351 9.59052 17.6387 9.61409C17.5613 9.62419 17.504 9.65113 17.4636 9.69828C17.4098 9.76899 17.4199 9.84981 17.4232 9.87338C17.4401 10.0216 17.5007 10.0822 17.6556 10.0956C18.0967 10.1461 18.191 10.2303 18.191 10.2909V12.9714C18.191 13.9379 18.7567 14.4498 19.8242 14.4498C20.5078 14.4498 21.0028 14.1029 21.3463 13.7796V14.2679C21.3463 14.3218 21.3598 14.3656 21.3867 14.4026C21.4204 14.4498 21.4743 14.4733 21.5383 14.4733L21.5989 14.4666L21.6191 14.4599C22.0434 14.3151 22.3936 14.2208 22.8246 14.1164C22.9627 14.076 23.0401 13.9446 23.0031 13.8099L23.0065 13.8133Z" fill="#2B388F"/>
<path d="M26.1146 9.4491C25.687 9.4491 25.2122 9.65114 24.7879 10.0115C24.7879 9.91381 24.798 9.81952 24.8148 9.70166C24.8215 9.63094 24.8047 9.56696 24.7609 9.51981C24.7205 9.47604 24.6666 9.45246 24.606 9.45246C24.5656 9.45246 24.5286 9.46257 24.4814 9.48614C24.1851 9.65788 23.781 9.81615 23.451 9.8936C23.3937 9.90707 23.222 9.94411 23.2523 10.1428C23.2691 10.291 23.3297 10.3516 23.4846 10.365L23.5318 10.3718C23.7978 10.4021 23.9325 10.4324 23.9325 10.5233V13.4732C23.9325 13.7527 23.8685 13.7763 23.8079 13.7999C23.653 13.8537 23.5284 13.8672 23.3836 13.884L23.323 13.8908C23.1883 13.911 23.121 13.9985 23.121 14.1568C23.121 14.3151 23.2018 14.406 23.3601 14.406C23.4106 14.406 23.5958 14.4026 23.7978 14.3993C24.0302 14.3925 24.2827 14.3892 24.3602 14.3892C24.4376 14.3892 24.6767 14.3959 24.899 14.3993C25.0909 14.4026 25.2728 14.406 25.3199 14.406C25.4075 14.406 25.559 14.3723 25.559 14.1501C25.559 14.0928 25.559 13.9211 25.3132 13.8874C25.165 13.8706 25.0539 13.8605 24.8956 13.8032C24.835 13.7796 24.771 13.7561 24.771 13.4766V10.9577C24.771 10.7254 24.899 10.456 25.2896 10.4088C25.4714 10.4088 25.6297 10.4593 25.7476 10.5536C25.8722 10.6513 25.9968 10.6984 26.1382 10.6984C26.4817 10.6984 26.7713 10.4122 26.7713 10.0754C26.7713 9.7387 26.4817 9.45246 26.1113 9.45246L26.1146 9.4491Z" fill="#2B388F"/>
<path d="M29.3238 9.3548C28.0644 9.3548 26.7881 10.2539 26.7881 11.978C26.7881 13.4193 27.7647 14.4262 29.1588 14.4262C30.196 14.4262 30.9368 13.8335 31.1827 13.2813C31.2062 13.2307 31.2332 13.1533 31.1995 13.0792C31.1658 13.0018 31.0917 12.9748 31.0749 12.9714L31.0176 12.9546H30.9941C30.8964 12.9546 30.8324 13.0186 30.7954 13.0657C30.4721 13.4328 30.095 13.5978 29.5797 13.5978C28.7749 13.5978 27.8017 13.2914 27.731 11.8366C27.731 11.8029 27.731 11.7861 27.731 11.7861C27.731 11.7861 27.731 11.7895 27.731 11.7962L30.9907 11.8332C31.1422 11.8332 31.2702 11.7086 31.287 11.5403C31.3443 10.9274 31.1658 10.3448 30.7988 9.9441C30.4485 9.56021 29.9401 9.35816 29.3306 9.35816L29.3238 9.3548ZM27.7546 11.1901C27.7748 10.6849 28.3506 10.0047 29.2733 10.0047C29.9434 10.0047 30.4081 10.4324 30.4081 11.0453C30.4081 11.1126 30.37 11.1485 30.2936 11.153C29.8626 11.1699 28.4415 11.1901 27.7512 11.1901H27.7546Z" fill="#2B388F"/>
<path d="M38.9581 12.2811C38.9244 12.271 38.8975 12.2677 38.8706 12.2677C38.8167 12.2677 38.7224 12.2879 38.682 12.4125C38.6045 12.6313 38.3789 13.2206 38.2745 13.4227C38.1836 13.6012 38.0287 13.783 37.5842 13.783H36.547C36.4224 13.783 36.2911 13.7561 36.1934 13.7089C36.1429 13.6854 36.0924 13.581 36.0924 13.4059V8.01455C36.0924 7.73505 36.1564 7.71148 36.2136 7.68791C36.3719 7.63403 36.5369 7.60036 36.7928 7.58015C36.8905 7.56668 37.0016 7.50944 37.0016 7.32423C37.0016 7.15922 36.9107 7.0683 36.7524 7.0683C36.7019 7.0683 35.7153 7.0885 35.6378 7.0885C35.5603 7.0885 34.5535 7.0683 34.503 7.0683C34.3447 7.0683 34.2538 7.16259 34.2538 7.32423C34.2538 7.5128 34.3683 7.56668 34.4727 7.58015C34.6579 7.59699 34.8734 7.62056 35.062 7.68791C35.1226 7.71148 35.1866 7.73505 35.1866 8.01455V13.4362C35.1866 13.6449 35.0956 13.7527 35.062 13.7662C34.8431 13.8638 34.6276 13.8807 34.3986 13.9009C34.3481 13.911 34.1965 13.9413 34.1965 14.1568C34.1965 14.3218 34.2875 14.4127 34.4457 14.4127C34.5602 14.4127 35.1664 14.4026 35.7186 14.3891C36.1699 14.379 36.5841 14.3723 36.648 14.3723C36.7188 14.3723 38.4766 14.4026 38.5304 14.4026C38.6584 14.4026 38.7392 14.342 38.7763 14.214C38.8975 13.7089 39.0389 13.0085 39.1164 12.5472C39.1231 12.4933 39.1433 12.3316 38.9547 12.2778L38.9581 12.2811Z" fill="#231F20"/>
<path d="M44.0194 13.2678C43.9352 13.2678 43.8611 13.3217 43.8342 13.4025C43.8106 13.453 43.7096 13.5911 43.5816 13.5911C43.5042 13.5911 43.3021 13.5911 43.3021 13.0994V10.4762C43.3021 9.77574 42.8442 9.37164 42.0461 9.37164C41.184 9.37164 40.2815 9.69492 39.8 10.1798C39.5845 10.3953 39.443 10.7658 39.4531 11.089C39.4666 11.3416 39.635 11.3786 39.7326 11.3786C39.7899 11.3786 39.8572 11.3685 39.9515 11.3416C40.2007 11.2642 40.5105 11.1699 40.4398 10.8095C40.4398 10.4088 40.8237 9.98115 41.5376 9.98115C41.8137 9.98115 42.4535 10.0418 42.4535 10.5873V11.2709C42.4535 11.3382 42.4333 11.3416 42.4199 11.3483C42.1168 11.4494 40.5779 11.9646 40.0121 12.335C39.6316 12.5909 39.4161 12.9984 39.4161 13.453C39.4161 14.1097 39.8303 14.5171 40.5004 14.5171C41.3625 14.5171 41.9888 14.0524 42.4064 13.746L42.4401 13.7224C42.5512 14.2006 42.8509 14.47 43.2685 14.47C43.7298 14.47 44.0968 14.1299 44.2248 13.5843C44.2484 13.4968 44.2349 13.4092 44.1878 13.3486C44.1474 13.2981 44.0901 13.2678 44.0295 13.2678H44.0194ZM40.5981 12.6751C40.9045 12.4327 41.7733 12.0959 42.4502 11.8804C42.4636 11.877 42.4704 11.877 42.4704 11.877L42.4502 11.8972V12.9647C42.4502 13.0859 42.4434 13.1028 42.3626 13.1735C42.1639 13.3452 41.5612 13.7258 41.0661 13.7258C40.6183 13.7258 40.3926 13.5473 40.3926 13.1937C40.3926 12.9883 40.4802 12.7728 40.6014 12.6751H40.5981Z" fill="#231F20"/>
<path d="M47.1949 9.40194C46.6393 9.40194 46.1544 9.54674 45.693 9.85318V7.47912C45.693 7.25687 45.6897 6.88308 45.72 6.61705C45.7267 6.54633 45.7099 6.48235 45.6661 6.43521C45.6257 6.39143 45.5718 6.36786 45.5112 6.36786C45.4708 6.36786 45.4337 6.37796 45.3866 6.40153C45.0903 6.57327 44.6862 6.73154 44.3561 6.809C44.2989 6.82247 44.1272 6.85951 44.1575 7.05819C44.1743 7.20636 44.2349 7.26697 44.3898 7.28044L44.437 7.28717C44.703 7.31748 44.8377 7.34779 44.8377 7.43871V13.3856C44.8377 13.6416 44.7838 13.9413 44.6828 14.2746C44.6491 14.379 44.6525 14.4632 44.6963 14.5238L44.7737 14.5979H44.8411C44.9084 14.5979 44.9758 14.5642 45.0364 14.5036L45.5045 14.0154C45.5045 14.0154 45.5179 14.0154 45.5482 14.0356C46.0432 14.3218 46.5181 14.4464 47.0838 14.4464C48.259 14.4464 49.4444 13.5675 49.4444 11.8905C49.4444 10.2135 48.2759 9.3952 47.1882 9.3952L47.1949 9.40194ZM45.693 12.6953V10.658C45.693 10.5031 45.7099 10.4492 45.8176 10.3819C45.8951 10.328 46.2386 10.1731 46.7875 10.1731C47.6293 10.1731 48.5385 10.7321 48.5385 11.9612C48.5385 12.6684 48.3365 13.8571 46.9895 13.8571C46.4574 13.8571 45.6897 13.4429 45.6897 12.6919L45.693 12.6953Z" fill="#231F20"/>
<path d="M59.2504 13.8908C59.1359 13.884 58.9844 13.8436 58.7891 13.7662C58.6409 13.7123 58.4759 13.5776 58.2941 13.3722L55.5664 10.2876L55.5529 10.2236C56.4352 9.36153 57.5566 8.38496 57.9943 8.00781C58.1493 7.88321 58.3614 7.75862 58.5365 7.69127C58.6712 7.63739 58.7352 7.62055 58.9574 7.58351C59.0551 7.57004 59.1662 7.51279 59.1662 7.32758C59.1662 7.16258 59.0753 7.07166 58.917 7.07166C58.8665 7.07166 58.688 7.07502 58.4927 7.07839C58.2671 7.08513 58.0247 7.08849 57.9472 7.08849C57.8698 7.08849 57.6206 7.08176 57.3916 7.07839C57.1929 7.07502 57.0077 7.07166 56.9572 7.07166C56.7989 7.07166 56.708 7.16594 56.708 7.32758C56.708 7.51616 56.8225 7.57004 56.9134 7.58351C57.1424 7.62055 57.2232 7.64749 57.3478 7.69463C57.3478 7.69463 57.3478 7.7081 57.3343 7.72494C56.4992 8.52976 55.4014 9.45245 54.6168 10.099V8.02128C54.6168 7.74178 54.6808 7.71821 54.7414 7.69463C54.8997 7.64076 55.0647 7.60708 55.3206 7.58688C55.4182 7.57341 55.5294 7.51616 55.5294 7.33095C55.5294 7.16594 55.4384 7.07502 55.2802 7.07502C55.2297 7.07502 54.243 7.09523 54.1655 7.09523C54.0881 7.09523 53.0812 7.07502 53.0307 7.07502C52.8724 7.07502 52.7815 7.16931 52.7815 7.33095C52.7815 7.51953 52.896 7.57341 53.0004 7.58688C53.1856 7.60371 53.4011 7.62729 53.5897 7.69463C53.6503 7.71821 53.7143 7.74178 53.7143 8.02128V13.4597C53.7143 13.7392 53.6503 13.7628 53.5897 13.7864C53.4011 13.8537 53.1823 13.8773 52.9903 13.8941C52.8926 13.9076 52.7815 13.9648 52.7815 14.15C52.7815 14.3151 52.8724 14.406 53.0307 14.406C53.0812 14.406 54.0881 14.3858 54.1655 14.3858C54.243 14.3858 55.2297 14.406 55.2802 14.406C55.4384 14.406 55.5294 14.3117 55.5294 14.15C55.5294 13.9615 55.4149 13.9076 55.3105 13.8941C55.0613 13.8739 54.8963 13.8402 54.7414 13.7864C54.6808 13.7628 54.6168 13.7392 54.6168 13.4597V10.8264C54.6168 10.7725 54.6336 10.7186 54.6673 10.7186C54.6909 10.7186 54.7279 10.7354 54.7683 10.7792L57.2771 13.6887C57.3209 13.7426 57.3276 13.7763 57.3276 13.7796C57.3276 13.7796 57.3141 13.7931 57.2872 13.8066C57.1626 13.8503 57.0414 13.8773 56.8696 13.8975C56.772 13.911 56.6608 13.9682 56.6608 14.1534C56.6608 14.3184 56.7518 14.4093 56.91 14.4093C56.9605 14.4093 58.0348 14.3891 58.1122 14.3891C58.1897 14.3891 59.1797 14.4093 59.2268 14.4093C59.3851 14.4093 59.476 14.3151 59.476 14.1534C59.476 13.9648 59.3615 13.911 59.2538 13.8941L59.2504 13.8908Z" fill="#231F20"/>
<path d="M62.1633 9.3649C60.6816 9.3649 59.7252 10.3482 59.7252 11.8703C59.7252 13.7527 60.9847 14.4262 62.1633 14.4262C63.3419 14.4262 64.6013 13.7561 64.6013 11.8703C64.6013 10.3482 63.6449 9.3649 62.1633 9.3649ZM62.1633 13.8133C61.2978 13.8133 60.6917 13.0119 60.6917 11.8602C60.6917 10.6445 61.2136 9.97441 62.1633 9.97441C63.1129 9.97441 63.6348 10.6445 63.6348 11.8602C63.6348 13.0085 63.0287 13.8133 62.1633 13.8133Z" fill="#231F20"/>
<path d="M68.1573 9.4491C67.7297 9.4491 67.2582 9.65114 66.8306 10.0115C66.8306 9.91381 66.8407 9.81952 66.8575 9.70166C66.8642 9.63094 66.8474 9.56696 66.8036 9.51981C66.7632 9.47604 66.7093 9.45246 66.6487 9.45246C66.6083 9.45246 66.5713 9.46257 66.5241 9.48614C66.2278 9.65788 65.8237 9.81615 65.4937 9.8936C65.4364 9.90707 65.2647 9.94411 65.295 10.1428C65.3118 10.291 65.3724 10.3516 65.5273 10.365L65.5745 10.3718C65.8405 10.4021 65.9752 10.4324 65.9752 10.5233V13.4732C65.9752 13.7527 65.9112 13.7763 65.854 13.7999C65.6957 13.8537 65.5745 13.8672 65.4297 13.884L65.3691 13.8908C65.2344 13.911 65.1704 13.9985 65.1704 14.1568C65.1704 14.3151 65.2512 14.406 65.4095 14.406C65.46 14.406 65.6452 14.4026 65.8473 14.3993C66.0796 14.3925 66.3322 14.3892 66.4096 14.3892C66.4871 14.3892 66.7295 14.3959 66.9518 14.3993C67.1437 14.4026 67.3222 14.406 67.3727 14.406C67.4603 14.406 67.6118 14.3723 67.6118 14.1501C67.6118 14.0928 67.6118 13.9211 67.366 13.8874C67.2178 13.8706 67.11 13.8605 66.9484 13.8032C66.8878 13.7796 66.8238 13.7561 66.8238 13.4766V10.9577C66.8238 10.7254 66.9518 10.456 67.3424 10.4088C67.5242 10.4088 67.6825 10.4593 67.8004 10.5536C67.925 10.6513 68.0496 10.6984 68.1876 10.6984C68.5311 10.6984 68.8207 10.4122 68.8207 10.0754C68.8207 9.7387 68.5311 9.45246 68.1607 9.45246L68.1573 9.4491Z" fill="#231F20"/>
<path d="M71.3665 9.3548C70.1071 9.3548 68.8308 10.2539 68.8308 11.978C68.8308 13.4193 69.8074 14.4262 71.2015 14.4262C72.2387 14.4262 72.9795 13.8335 73.2254 13.2813C73.2489 13.2307 73.2759 13.1533 73.2422 13.0792C73.2085 13.0018 73.1344 12.9748 73.1176 12.9714L73.0603 12.9546H73.0368C72.9391 12.9546 72.8751 13.0186 72.8381 13.0657C72.5148 13.4328 72.1377 13.5978 71.6224 13.5978C70.8176 13.5978 69.8444 13.2914 69.7737 11.8366C69.7737 11.8029 69.7737 11.7861 69.7737 11.7861C69.7737 11.7861 69.7737 11.7895 69.7737 11.7962L73.0334 11.8332C73.1849 11.8332 73.3129 11.7086 73.3297 11.5403C73.387 10.9274 73.2085 10.3448 72.8415 9.9441C72.4912 9.56021 71.9828 9.35816 71.3732 9.35816L71.3665 9.3548ZM71.3194 10.0047C71.9895 10.0047 72.4542 10.4324 72.4542 11.0453C72.4542 11.1126 72.416 11.1485 72.3397 11.153C71.9087 11.1699 70.491 11.1901 69.7973 11.1901C69.8175 10.6849 70.3933 10.0047 71.316 10.0047H71.3194Z" fill="#231F20"/>
<path d="M78.8355 13.3486C78.7951 13.2981 78.7379 13.2678 78.6739 13.2678C78.5897 13.2678 78.5156 13.3217 78.4887 13.4025C78.4651 13.453 78.3641 13.5911 78.2361 13.5911C78.1587 13.5911 77.9566 13.5911 77.9566 13.0994V10.4762C77.9566 9.77574 77.4987 9.37164 76.7006 9.37164C75.8419 9.37164 74.9394 9.69492 74.4545 10.1798C74.239 10.3953 74.0975 10.7658 74.1076 11.089C74.1211 11.3416 74.2895 11.3786 74.3871 11.3786C74.4444 11.3786 74.5117 11.3685 74.606 11.3416C74.8552 11.2642 75.165 11.1699 75.0943 10.8095C75.0943 10.4088 75.4782 9.98115 76.1921 9.98115C76.4682 9.98115 77.108 10.0418 77.108 10.5873V11.2709C77.108 11.3382 77.0878 11.3416 77.0744 11.3483C76.1955 11.6379 75.1044 12.0488 74.6666 12.335C74.2861 12.5909 74.0706 12.9984 74.0706 13.453C74.0706 14.1097 74.4848 14.5171 75.1549 14.5171C76.017 14.5171 76.6433 14.0524 77.0609 13.746L77.0946 13.7224C77.2057 14.2006 77.5054 14.47 77.923 14.47C78.3843 14.47 78.7514 14.1299 78.8793 13.5843C78.9029 13.4968 78.8894 13.4092 78.8423 13.3486H78.8355ZM75.2526 12.6751C75.559 12.436 76.4278 12.0959 77.1013 11.8804C77.1148 11.877 77.1215 11.877 77.1215 11.877L77.1013 11.8972V12.9647C77.1013 13.0859 77.0946 13.1028 77.0137 13.1735C76.8151 13.3452 76.2157 13.7258 75.7173 13.7258C75.2694 13.7258 75.0438 13.5473 75.0438 13.1937C75.0438 12.9883 75.1313 12.7728 75.2526 12.6718V12.6751Z" fill="#231F20"/>
<path d="M1.87231 1.87231H30.7449V0H0V1.87231V4.68077H1.87231V1.87231Z" fill="#2B388F"/>
<path d="M28.8726 23.1277H0V25H28.8726H30.7449V23.1277V20.3192H28.8726V23.1277Z" fill="#2B388F"/>
</g>
<defs>
<clipPath id="clip0_11_60">
<rect width="78.886" height="25" fill="white"/>
</clipPath>
</defs>
</svg>
